<svg id="_03" data-name="03" xmlns="http://www.w3.org/2000/svg" width="547.815" height="194.4" viewBox="0 0 547.815 194.4">
  <metadata><?xpacket begin="﻿" id="W5M0MpCehiHzreSzNTczkc9d"?>
<x:xmpmeta xmlns:x="adobe:ns:meta/" x:xmptk="Adobe XMP Core 5.6-c142 79.160924, 2017/07/13-01:06:39        ">
   <rdf:RDF xmlns:rdf="http://www.w3.org/1999/02/22-rdf-syntax-ns#">
      <rdf:Description rdf:about=""/>
   </rdf:RDF>
</x:xmpmeta>
                                                                                                    
                                                                                                    
                                                                                                    
                                                                                                    
                                                                                                    
                                                                                                    
                                                                                                    
                                                                                                    
                                                                                                    
                                                                                                    
                                                                                                    
                                                                                                    
                                                                                                    
                                                                                                    
                                                                                                    
                                                                                                    
                                                                                                    
                                                                                                    
                                                                                                    
                                                                                                    
                           
<?xpacket end="w"?></metadata>
<defs>
    <style>
      .cls-1 {
        fill: #fff;
      }

      .cls-1, .cls-2 {
        fill-rule: evenodd;
      }

      .cls-2 {
        fill: #ffc13a;
      }
    </style>
  </defs>
  <path id="新的可能" class="cls-1" d="M741.8,6265.57H719.264a147.209,147.209,0,0,0-7.979-15.4l-8.959,2.38c2.1,3.92,4.479,8.82,6.3,13.02H680.489v7.98H741.8v-7.98Zm-38.355,28.97a75.654,75.654,0,0,0-6.02-19.87l-7.419,1.82a95.3,95.3,0,0,1,5.6,20.15Zm-11.619,42.28c-2.939,9.1-7.839,18.62-13.3,25.34,1.96,1.12,5.039,3.49,6.579,4.61a108.521,108.521,0,0,0,14.418-27.85Zm50.674-7.98v-8.12H716.324v-15.26H743.9v-7.98H725.563c2.8-6.16,5.6-14.14,8.119-20.99L725,6274.53a185.714,185.714,0,0,1-7.839,22.95H678.389v7.98h28.976v15.26H678.949v8.12h28.416v48.99h8.959v-48.99H742.5Zm-19.178,10.5a153.037,153.037,0,0,1,11.619,22.82l6.719-3.64c-2.239-6.02-7.279-15.4-11.758-22.4Zm81.611-41.44H759.719v-27.43c14.978-2.38,31.356-5.74,42.835-10.22L795,6253.53c-10.079,4.06-28.137,8.12-43.815,10.78v47.73c0,18.62-1.26,42.84-13.3,59.91a30.8,30.8,0,0,1,7.139,5.6c12.878-18.19,14.7-45.49,14.7-65.51v-5.46h20.438v71.11h8.959v-71.11h15.818v-8.68Zm58.529,14.14H832.807v-30.52h30.656v30.52Zm-30.656,43.12v-34.72h30.656v34.72H832.807Zm13.019-104.71a150.924,150.924,0,0,1-6.02,22.68H824.268v101.62h8.539v-11.2H872v-90.42H848.345c2.52-6.02,5.18-13.86,7.419-20.72Zm94.768,22.4H898.179c2.38-6.72,4.34-13.72,6.16-20.72l-8.959-1.96c-4.34,19.32-11.9,38.63-21.418,51.09a84.5,84.5,0,0,1,7.839,5.18,129.107,129.107,0,0,0,13.159-24.92h36.675c-1.819,56.84-4.059,78.4-8.679,83.29-1.4,1.82-3.079,2.1-5.879,2.1-3.08,0-11.479,0-20.577-.84a22,22,0,0,1,3.079,9.1c7.839,0.42,15.818.7,20.578,0.28,4.619-.42,7.839-1.54,10.638-5.32,5.6-6.72,7.56-28.13,9.8-92.38v-4.9Zm-21.977,62.99c-4.48-8.4-14.278-21.84-22.4-31.78l-7.14,4.2c7.839,10.08,17.358,23.94,21.7,32.48Zm103.183-35.56v33.88H983.306v-33.88H1021.8Zm9.1,42.7v-51.52H974.347v62.72h8.959v-11.2H1030.9Zm52.63-82.17H959.789v9.38h96.871v94.2c0,2.8-.98,3.78-3.92,3.92-3.36.14-14.56,0.28-26.04-.28a60.725,60.725,0,0,1,4.06,10.08c13.58,0,23.1,0,28.56-1.68,5.04-1.68,6.86-4.9,6.86-11.9v-94.34h17.35v-9.38Zm126.99,50.11c4.89,0,9.93-.28,12.03-0.84-0.28-2.1-.7-5.6-0.84-8.12a72.3,72.3,0,0,1-11.47.84h-26.6c-4.62,0-5.88-1.82-5.88-6.86V6279h38.35v-8.39h-38.35v-19.74h-9.1v44.93c0,11.06,3.36,15.12,14.84,15.12h27.02Zm-55.16-10.78h-47.87V6335c0,11.9-.84,26.46-8.96,37.09a25.593,25.593,0,0,1,6.44,6.44c9.66-12.04,11.2-29.81,11.2-43.39v-26.88h30.37v28.98c-11.62,6.02-23.37,11.9-31.35,15.26l3.64,7.98c8.12-4.48,17.91-10.08,27.71-15.68v22.95c0,1.82-.42,2.38-2.38,2.38-1.82.14-7.84,0.28-14.69,0a28.4,28.4,0,0,1,2.93,7.84c8.82,0,14.84-.14,18.48-1.54,3.5-1.4,4.48-3.64,4.48-8.68v-67.61Zm-37.37,21.7c7.7,4.48,17.77,11.06,22.95,15.26l4.9-5.46c-5.18-4.06-15.26-10.22-23.09-14.56Zm20.71-57.95c3.22,4.2,6.3,9.38,9.38,14.28l-30.51,2.23a173.1,173.1,0,0,0,20.01-26.59l-9.23-3.08a142.332,142.332,0,0,1-18.06,25.62c-2.8,3.07-5.18,5.17-7.28,5.59a92.933,92.933,0,0,1,2.94,8.82c3.08-1.26,7.84-1.82,46.19-5.04a100.6,100.6,0,0,1,4.76,9.66l7.98-3.78c-3.5-8.12-11.62-21.13-18.76-30.79Zm47.32,104.84c-6.86,0-8.26-.84-8.26-5.45V6341.3h39.89v-8.4h-39.89v-17.08h-9.1v47.59c0,10.78,3.5,13.58,16.52,13.58h25.76c11.19,0,13.99-4.62,15.25-22.81a27.455,27.455,0,0,1-8.4-3.5c-0.56,15.39-1.68,18.05-7.69,18.05h-24.08Z" transform="translate(-678.375 -6184.13)"/>
  <path id="發現" class="cls-2" d="M922.832,6213c0.276-1.56.552-3.31,0.782-5.06h9.8v-10.03H926.1a26.432,26.432,0,0,0,9.8-11.04l-1.84-.97-0.553.14h-12.56v2.53H931.9a23.254,23.254,0,0,1-4.647,5.2,32.559,32.559,0,0,0-5.659-4.28l-1.794,1.66a30.97,30.97,0,0,1,5.291,4.23,32.772,32.772,0,0,1-9.248,4.42,12.747,12.747,0,0,1,1.7,2.3,33.416,33.416,0,0,0,5.291-2.26v0.56h7.822v5.1H921.36c-0.414,3.22-1.058,7.23-1.564,9.9h10.72c-0.46,4.6-.966,6.58-1.657,7.22a2.479,2.479,0,0,1-1.7.37c-0.874,0-3.405-.05-5.935-0.23a6.829,6.829,0,0,1,.92,2.62,56.945,56.945,0,0,0,6.073.09,3.891,3.891,0,0,0,2.9-1.06c1.1-1.05,1.7-3.72,2.3-10.16,0.046-.37.092-1.25,0.092-1.25H922.832Zm29.262-2.11-0.506.13H935.761v2.26h14.355a19.23,19.23,0,0,1-4.739,5.29c-2.715-1.66-5.567-3.27-8.006-4.6l-1.518,1.66c2.3,1.28,4.877,2.8,7.407,4.37a33.392,33.392,0,0,1-9.616,3.77,7.718,7.718,0,0,1,1.427,2.25,34.958,34.958,0,0,0,10.582-4.55c2.714,1.7,5.153,3.36,6.855,4.65l1.565-2.03c-1.611-1.19-3.865-2.62-6.4-4.19a19.8,19.8,0,0,0,6.12-8.28Zm2.853-21.9a52.523,52.523,0,0,1-6.488,5.38,34.687,34.687,0,0,1-3.5-2.85,83.85,83.85,0,0,0,6.809-5.57l-2.254-1.56a56.168,56.168,0,0,1-6.12,5.42,25.238,25.238,0,0,1-3.726-5.7l-2.485.78a30.972,30.972,0,0,0,11.364,12.88H938.015v3.64c0,2.21-.644,4.74-4.371,6.67a9.786,9.786,0,0,1,1.979,1.93,9.171,9.171,0,0,0,5.015-8.56v-1.19h6.671v4.83c0,2.53.506,3.54,3.083,3.54h4a8.451,8.451,0,0,0,2.3-.18,16.494,16.494,0,0,1-.184-2.16,12.332,12.332,0,0,1-2.162.13h-3.635c-0.69,0-.782-0.27-0.782-1.28v-6.49a32.24,32.24,0,0,0,6.809,2.9,17.614,17.614,0,0,1,1.84-2.44,30.6,30.6,0,0,1-8.051-3.36,51.4,51.4,0,0,0,6.671-5.2Zm23.869,22.03c-2.162.65-4.371,1.25-6.487,1.85v-10.72h5.8v-2.81h-5.8v-10.08h6.211v-2.85H962.851v2.85h6.533v10.08h-5.935v2.81h5.935v11.54c-2.76.79-5.291,1.48-7.315,1.98l0.828,2.99c4.417-1.38,10.49-3.17,16.287-4.87Zm4.785-7.45H999.06v5.02H983.6v-5.02Zm0-7.45H999.06v4.92H983.6v-4.92Zm0-7.41H999.06v4.92H983.6v-4.92Zm13.527,34.28c-1.242,0-1.38-.23-1.38-1.34v-10.44h6.3v-25.12H980.7v25.12h4.233c-0.783,6.07-2.991,10.26-11,12.51a9.434,9.434,0,0,1,1.749,2.49c8.741-2.72,11.272-7.69,12.284-15H992.8v10.44c0,3.09.736,3.91,3.865,3.91h4.642c2.67,0,3.46-1.33,3.69-6.85a7.357,7.357,0,0,1-2.58-1.2c-0.09,4.74-.32,5.48-1.43,5.48h-3.862Z" transform="translate(-678.375 -6184.13)"/>
</svg>
