<svg id="群組_9" data-name="群組 9" xmlns="http://www.w3.org/2000/svg" width="530.469" height="195.03" viewBox="0 0 530.469 195.03">
  <metadata><?xpacket begin="﻿" id="W5M0MpCehiHzreSzNTczkc9d"?>
<x:xmpmeta xmlns:x="adobe:ns:meta/" x:xmptk="Adobe XMP Core 5.6-c142 79.160924, 2017/07/13-01:06:39        ">
   <rdf:RDF xmlns:rdf="http://www.w3.org/1999/02/22-rdf-syntax-ns#">
      <rdf:Description rdf:about=""/>
   </rdf:RDF>
</x:xmpmeta>
                                                                                                    
                                                                                                    
                                                                                                    
                                                                                                    
                                                                                                    
                                                                                                    
                                                                                                    
                                                                                                    
                                                                                                    
                                                                                                    
                                                                                                    
                                                                                                    
                                                                                                    
                                                                                                    
                                                                                                    
                                                                                                    
                                                                                                    
                                                                                                    
                                                                                                    
                                                                                                    
                           
<?xpacket end="w"?></metadata>
<defs>
    <style>
      .cls-1 {
        fill: #fff;
      }

      .cls-1, .cls-2 {
        fill-rule: evenodd;
      }

      .cls-2 {
        fill: #ffc13a;
      }
    </style>
  </defs>
  <path id="自我期許" class="cls-1" d="M704.426,4042.74V4020.9H780.3v21.84H704.426Zm75.871-52.08v21.56H704.426v-21.56H780.3Zm0-30.8v22.12H704.426v-22.12H780.3Zm-40.875-8.95c2.379-5.32,4.9-11.9,7-17.78l-10.5-1.54a143.432,143.432,0,0,1-5.879,19.32h-35v108.62h9.379v-7.98H780.3v7.28h9.659V3950.91H739.422Zm200.192,7.98c-4.759-6.44-14.558-16.38-22.817-23.24l-7.139,4.76c8.4,7.28,17.918,17.36,22.4,23.93ZM928,3988.84a120.666,120.666,0,0,1-19.318,26.88,265.74,265.74,0,0,1-6.019-33.6h40.6v-8.82H901.679c-1.26-12.6-1.82-26.03-1.82-40.31H890.2c0.14,13.86.84,27.57,1.96,40.31H859.4v-25.47c8.679-1.96,16.658-4.2,23.377-6.44l-6.719-7.7c-13.019,4.9-35.836,9.8-55.294,12.88a34.732,34.732,0,0,1,2.94,7.7c8.539-1.26,17.5-2.8,26.457-4.62v23.65H819.649v8.82h30.516v25.48c-12.319,2.8-23.8,5.18-32.336,6.72l2.66,9.38c8.539-1.96,18.9-4.2,29.676-6.86v30.09c0,2.52-.84,3.22-3.36,3.22-2.379.14-10.638,0.28-19.737,0a36.534,36.534,0,0,1,3.5,9.38c11.479,0.14,18.758-.28,23.1-1.82,4.059-1.54,5.739-4.34,5.739-10.78V4014.6l26.177-6.16-0.7-8.4c-8.539,1.96-17.078,3.92-25.477,5.74v-23.66H893.14a265.017,265.017,0,0,0,7.839,41.3,141.747,141.747,0,0,1-33.456,23.23,41,41,0,0,1,6.579,7.42,169.2,169.2,0,0,0,30.1-21.13c6.439,16.65,15.118,26.87,26.316,26.87,10.079,0,13.579-6.86,15.259-29.81a28.4,28.4,0,0,1-7.839-4.9c-0.84,18.06-2.66,25.33-6.58,25.33-7.559,0-14.278-9.23-19.6-24.77a146.971,146.971,0,0,0,24.5-33.32Zm51.81,13.16h26.734v14.98H979.806V4002Zm26.734-42.97v13.15H979.806v-13.15h26.734Zm-26.734,20.71h26.734v14.56H979.806v-14.56Zm46.054,37.24h-10.64v-57.95h10.36v-8.4h-10.36v-17.22h-8.68v17.22H979.806v-17.22h-8.539v17.22h-11.9v8.4h11.9v57.95H957.409v8.4h68.451v-8.4Zm-48.713,11.76a71.8,71.8,0,0,1-19.458,25.19,52.309,52.309,0,0,1,7.559,5.46,92.572,92.572,0,0,0,20.718-28.41Zm19.877,3.92c5.456,6.58,11.616,15.67,14.136,21.27l7.56-4.48c-2.66-5.59-8.96-14.27-14.56-20.57Zm44.236-29.12c0.14-4.9.28-9.8,0.28-14.14v-10.22h30.1v24.36h-30.38Zm30.38-56.13v23.37h-30.1v-23.37h30.1Zm8.95-8.54h-47.73v50.53c0,20.02-1.12,46.62-13.02,65.23a28.24,28.24,0,0,1,7.42,5.46c8.54-13.58,12.04-31.49,13.44-48.15h30.94v34.85c0,2.24-.7,2.8-2.8,2.94s-9.1.14-16.8-.14a38.272,38.272,0,0,1,2.94,9.1c10.36,0,16.8-.14,20.57-1.68,3.64-1.54,5.04-4.34,5.04-10.22V3938.87Zm49.72,12.74c-0.7-5.18-3.64-13.16-7.14-18.76l-6.72,2.66a65.091,65.091,0,0,1,6.58,19.18Zm21.97,3.5h-54.87v7.69h54.87v-7.69Zm-14,63.83v24.64h-26.17v-24.64h26.17Zm8.4-7.84h-42.83v46.75h8.26v-6.58h34.57V4011.1Zm-42.69-11.2h43.11v-7.56h-43.11v7.56Zm0-18.62h43.11v-7.56h-43.11v7.56Zm121.5,13.58h-31.77v-33.32h28.97v-8.67h-50.25c2.1-6.16,4.06-12.74,5.74-19.46l-9.24-1.82c-4.06,18.48-11.48,36.39-21.56,48.01a85.094,85.094,0,0,1,8.26,5.18,104.4,104.4,0,0,0,13.3-23.24h15.4v33.32H1151.3v8.82h33.04v55.57h9.38v-55.57h31.77v-8.82Z" transform="translate(-695.031 -3865.06)"/>
  <path id="超越" class="cls-2" d="M928.675,3891.7h7.316v-2.71h-7.316v-6.86h6.856a17.957,17.957,0,0,1,2.162,1.84c5.107-2.9,7.96-7.27,8.88-14.31h7.408c-0.369,6.31-.783,8.79-1.381,9.53a1.589,1.589,0,0,1-1.426.37c-0.644,0-2.485,0-4.509-.19a6.888,6.888,0,0,1,.782,2.67,48.247,48.247,0,0,0,5.015.05,3.655,3.655,0,0,0,2.623-1.11c0.966-1.15,1.426-4.32,1.84-12.65,0.046-.46.046-1.33,0.046-1.33h-20.06v2.66h6.671c-0.69,5.66-2.852,9.44-7.131,11.87v-2.16h-8.282v-5.89h7.316v-2.76h-7.316v-5.66h-2.852v5.66h-7.408v2.76h7.408v5.89h-8.328v2.76h8.926v17.44a15.174,15.174,0,0,1-4.233-7.18c0.138-2.07.23-4.32,0.276-6.62l-2.807-.14c-0.092,8.14-.552,15.27-3.266,19.88a15.272,15.272,0,0,1,2.438,1.51,27.228,27.228,0,0,0,2.807-9.34c3.313,6.49,8.742,8.06,18.772,8.06h17.667a9.889,9.889,0,0,1,1.243-2.99c-2.577.09-16.932,0.09-18.956,0.09-4.739,0-8.374-.42-11.181-1.61v-9.53Zm12.7-4.41h11.594v8.97H941.374v-8.97Zm-2.9,11.54h17.53v-14.12h-17.53v14.12ZM1003.39,3871a62.458,62.458,0,0,0-4.652-5.48l-2.116,1.15a68.561,68.561,0,0,1,4.6,5.66Zm-17.12,20.52v-15.69h6.395a94.459,94.459,0,0,0,2.116,15.92,26.508,26.508,0,0,1-8.419,7.54,17.961,17.961,0,0,1,1.886,2.21,27.421,27.421,0,0,0,7.454-6.67c1.242,3.5,2.944,5.52,5.018,5.52,2.53,0,3.36-1.98,3.82-8.19a7.809,7.809,0,0,1-2.21-1.42c-0.14,4.74-.56,6.85-1.34,6.85-1.286,0-2.39-1.93-3.356-5.34a48.824,48.824,0,0,0,5.8-12.69l-2.44-.69a42.036,42.036,0,0,1-4.184,9.75,101.809,101.809,0,0,1-1.426-12.79h9.06v-2.67h-9.2c-0.138-2.58-.184-5.29-0.184-8.05h-2.807c0.046,2.76.138,5.47,0.23,8.05h-8.972v17.9a3.589,3.589,0,0,1-2.024,3.13,13.059,13.059,0,0,1,1.334,2.67c0.644-.69,1.794-1.48,9.754-6.03a9.321,9.321,0,0,1-.782-2.35Zm-11.273.32h6.672v-2.76H975v-6.53h7.362v-2.76h-8.006v-6.17h7.04v-2.76h-7.04v-5.75H971.5v5.75h-7.132v2.76H971.5v6.17h-8.88v2.76h9.57v16.74a15.383,15.383,0,0,1-4.371-7.36c0.138-2.11.184-4.14,0.138-6.12l-2.622-.09c0.138,6.03-.185,13.8-3.4,19.28a6.982,6.982,0,0,1,2.024,1.84,28.9,28.9,0,0,0,3.313-9.71c3.451,6.95,9.064,8.61,19.37,8.61h16.882a11.558,11.558,0,0,1,1.29-2.99c-2.48.09-16.332,0.09-18.218,0.09-4.877,0-8.65-.42-11.6-1.75v-9.25Z" transform="translate(-695.031 -3865.06)"/>
</svg>
